<?xml version="1.0" encoding="UTF-8"?><svg fill="#ffffff" id="Layer_2" xmlns="http://www.w3.org/2000/svg" viewBox="0 0 126.24 115.05"><g id="Layer_1-2"><path d="M44.88,14.49c4.35,2.27,8.73,4.46,13.03,6.83,2.1,1.16,2.63,3.92,1.43,6-1.2,2.07-3.73,2.86-5.94,1.73-2.67-1.36-5.3-2.79-7.91-4.26-.82-.46-1.44-.47-2.3,0-9.24,5-18.5,9.95-27.75,14.92-.24,.13-.46,.29-.85,.53,3.02,1.62,5.93,3.16,8.81,4.73,2.94,1.6,3.44,5.28,1.04,7.44-1.4,1.26-3.35,1.51-5.13,.58-3.01-1.58-5.99-3.2-8.98-4.8-.34-.18-.69-.36-1.2-.62v1.31c0,12.12,0,24.24-.02,36.36,0,.87,.24,1.33,1.02,1.75,11.1,5.92,22.19,11.87,33.26,17.84,.68,.36,1.18,.39,1.86,.02,11.14-6.01,22.3-11.99,33.47-17.96,.67-.36,.87-.79,.86-1.51-.03-2.96-.02-5.92-.01-8.88,0-2.78,1.29-4.51,3.69-4.98,2.27-.45,4.12,.72,5.16,3.25,.03,.07,.1,.12,.15,.19v15.12c-.53,1.43-1.4,2.53-2.79,3.27-9.82,5.24-19.62,10.52-29.44,15.76-3.79,2.02-7.63,3.95-11.45,5.93h-1.2c-.72-.33-1.45-.62-2.14-.99-12.6-6.75-25.18-13.54-37.81-20.25-1.83-.97-3.23-2.14-3.73-4.21V39.93c.46-2.09,1.9-3.24,3.73-4.21,7.49-3.94,14.92-8,22.4-11.98,5.84-3.11,11.7-6.17,17.56-9.25,.4,0,.8,0,1.2,0Z"/><circle cx="44.83" cy="35.2" r="2.25"/><circle cx="44.83" cy="44.2" r="2.25"/><circle cx="44.83" cy="53.2" r="2.25"/><circle cx="44.83" cy="62.2" r="2.25"/><circle cx="33.84" cy="76.67" r="2.25"/><circle cx="25.82" cy="80.74" r="2.25"/><circle cx="17.79" cy="84.8" r="2.25"/><circle cx="55.79" cy="76.67" r="2.25"/><circle cx="63.82" cy="80.74" r="2.25"/><circle cx="71.84" cy="84.8" r="2.25"/><g><path d="M116.57,0h-44.51c-5.34,0-8.66,4.33-8.66,9.66V44.46c0,5.34,2.33,9.66,7.66,9.66h8.18v13.3c0,1.12,.91,2.03,2.03,2.03,.54,0,1.06-.21,1.44-.6l13.74-14.74h20.13c5.34,0,9.66-4.33,9.66-9.66V9.66c0-5.34-4.33-9.66-9.66-9.66Zm-23.87,42.75c-1.63,0-2.68-1.12-3.3-3.41l-.78-2.85h-10.22l-.93,3.11c-.62,2.07-1.67,3.11-3.03,3.11-1.75,0-2.99-1.38-2.99-3.32,0-.69,.08-1.38,.31-2.03l7.19-21.65c1.01-3.06,2.49-4.53,4.82-4.53,2.14,0,3.77,1.42,4.62,4.05l7,22.04c.27,.86,.43,1.6,.43,2.2,0,1.98-1.36,3.28-3.11,3.28Zm22.5,.13c-1.24,0-2.21-.91-3.38-2.5l-7.35-10.22v7.55c0,3.32-1.01,4.96-3.15,4.96s-3.15-1.64-3.15-4.96V16.52c0-3.41,.85-4.92,4.35-4.92h4.9c6.8,0,10.53,3.93,10.53,9.58,0,4.36-2.45,7.51-6.61,8.28l4.97,6.13c1.24,1.55,1.87,2.89,1.87,4.01,0,1.81-1.24,3.28-2.99,3.28Z"/><path d="M107.46,18.03h-2.99v7.46h2.91c2.56,0,4-1.42,4-3.8s-1.4-3.67-3.93-3.67Z"/><polygon points="80.19 30.07 86.79 30.07 83.61 18.68 80.19 30.07"/></g></g></svg>