<svg xmlns="http://www.w3.org/2000/svg" xmlns:xlink="http://www.w3.org/1999/xlink" width="106" height="74" viewBox="0 0 106 74">
  <defs>
    <clipPath id="clip-path">
      <rect id="Rectángulo_6" data-name="Rectángulo 6" width="106" height="74" transform="translate(19)" fill="#fff"/>
    </clipPath>
  </defs>
  <g id="Grupo_9" data-name="Grupo 9" transform="translate(-19)" clip-path="url(#clip-path)">
    <path id="Trazado_14" data-name="Trazado 14" d="M70.194,73.512V52.145c0-.665,0-.668.67-.665,2.952,0,5.908-.1,8.851.076a10.4,10.4,0,0,1,9.876,10.121,10.714,10.714,0,0,1-5.252,10.46,8.959,8.959,0,0,1-4.555,1.385c-3.108.066-6.243.031-9.365.038a1.32,1.32,0,0,1-.225-.052Zm5.049-4.877a24.052,24.052,0,0,0,5.525-.17A5.217,5.217,0,0,0,84.4,65.078a7.44,7.44,0,0,0,.221-4.34,5.4,5.4,0,0,0-5.235-4.375c-1.309-.062-2.624-.021-3.937-.021a.749.749,0,0,0-.193.055Z" fill="#fff"/>
    <path id="Trazado_15" data-name="Trazado 15" d="M32.4,72.223V73.54H27.682V52.183c0-.693,0-.693.691-.693H32.4v7.62c.128-.038.19-.038.218-.066,1.882-2.026,5.9-2.352,8.664-.274,4.834,3.613,4.237,11.693-1.036,14.481-2.22,1.171-5.729,1.039-7.6-.9a1.184,1.184,0,0,0-.242-.132Zm.007-6.581a3.746,3.746,0,1,0,3.871-3.779A3.565,3.565,0,0,0,32.4,65.622" fill="#fff"/>
    <path id="Trazado_16" data-name="Trazado 16" d="M96.539,67.574a2.643,2.643,0,0,0,1.468,1.732,4.723,4.723,0,0,0,5.027-.471c.114-.087.346-.166.432-.114,1.178.655,2.338,1.333,3.591,2.057a14.083,14.083,0,0,1-.977,1.095,8.108,8.108,0,0,1-5.808,2.134,8.846,8.846,0,0,1-6.019-2.026,7.814,7.814,0,0,1-2.731-6.28A7.735,7.735,0,0,1,95.4,58.572a8,8,0,0,1,8.909.146c2.873,1.915,3.764,4.745,3.453,8.049-.083.869.042.814-.911.814H97.223Zm6.533-3.561a3.12,3.12,0,0,0-3.356-2.449c-1.747.066-3.063,1.056-3.211,2.449Z" fill="#fff"/>
    <path id="Trazado_17" data-name="Trazado 17" d="M54.233,70.252l4.02-2.3a2.341,2.341,0,0,1,.159.243,2.821,2.821,0,0,0,3.453,1.489.9.9,0,0,0,.794-.765c.055-.468-.283-.693-.635-.821-.853-.3-1.727-.537-2.576-.842a18.767,18.767,0,0,1-2.172-.883c-3.294-1.676-2.763-6.138-.4-7.769A7.29,7.29,0,0,1,61.837,57.4a6.7,6.7,0,0,1,5.031,2.771c.107.149.2.312.345.544l-3.975,2.165c-.128-.18-.238-.346-.345-.474a2.138,2.138,0,0,0-2.417-.786,1.29,1.29,0,0,0-.656.693c-.135.346.159.627.476.741.77.274,1.561.481,2.327.758a22.045,22.045,0,0,1,2.652,1.056c3.028,1.586,2.925,6.321.041,8.049A8.055,8.055,0,0,1,61.174,74a7.907,7.907,0,0,1-5.114-1.448,6.062,6.062,0,0,1-1.813-2.3" fill="#fff"/>
    <path id="Trazado_18" data-name="Trazado 18" d="M108.142,57.787c1.7,0,3.3,0,4.9.021.145,0,.345.284.411.475.953,2.871,1.886,5.75,2.825,8.624.076.236.166.468.3.845.577-1.756,1.1-3.353,1.623-4.953.5-1.541,1-3.086,1.523-4.62.055-.156.252-.374.383-.374,1.6-.028,3.2-.017,4.89-.017-.065.246-.107.436-.172.62q-2.7,7.333-5.4,14.672a.642.642,0,0,1-.735.5c-1.43-.028-2.867-.021-4.3,0a.6.6,0,0,1-.674-.45q-2.71-7.412-5.438-14.817c-.052-.139-.08-.284-.145-.523" fill="#fff"/>
    <path id="Trazado_19" data-name="Trazado 19" d="M24.018,51.479V73.525H19.035c0-.187-.024-.371-.024-.554V52.089c0-.5.145-.634.632-.62,1.26.031,2.521,0,3.8,0Z" fill="#fff"/>
    <path id="Trazado_20" data-name="Trazado 20" d="M47.251,72.933c-1.481,0,1.727.641.283.624-.1,0-.217-.156-.273-.267a.943.943,0,0,1,0-.346V58.469c0-.693,0-.693.663-.693H51.5c.318,0,.463.08.463.429V73.286c0,.066-.021.132-.042.277" fill="#fff"/>
    <path id="Trazado_21" data-name="Trazado 21" d="M46.795,53.582a2.86,2.86,0,1,1,.834,1.975A2.868,2.868,0,0,1,46.795,53.582Z" fill="#fff"/>
    <path id="Trazado_22" data-name="Trazado 22" d="M53.3,35.418a9.8,9.8,0,0,1-2.466-5.666c-.255-2.026-.269-4.08-.39-6.165l.117-3.993V0h1.35c2.811.031,5.636-.069,8.436.132a9.83,9.83,0,0,1,8.219,5.542A20.429,20.429,0,0,1,69.852,9.3a.729.729,0,0,0,.691.63,10.821,10.821,0,0,1,9.027,8.895c.117.63.345.9,1,.991a10.928,10.928,0,0,1,9.03,10c.069,1.6.045,3.207.024,4.808a1.46,1.46,0,0,0,.5,1.188c1.115,1.063,2.2,2.158,3.453,3.381-.445.024-.67.045-.894.045H70.246c-5.618,0-13.071.322-16.945-3.81Zm12.9-6V12.136c0-.5-.021-1-.066-1.5a6.911,6.911,0,0,0-5.5-6.5,45.761,45.761,0,0,0-6.088-.277c-.021.381-.041.613-.041.845V27.365a7.77,7.77,0,0,0,7.987,7.946h22.6c.207,0,.411-.028.628-.045,0-1.777.09-3.5,0-5.216a6.793,6.793,0,0,0-6.105-6.369c-2.8-.194-5.618-.1-8.433-.135h-1.06v5.864Zm3.968-15.475V19.6h5.5C75.7,17.131,72.8,14.166,70.167,13.944Z" fill="#fff"/>
    <path id="Trazado_23" data-name="Trazado 23" d="M78.861,29.185a2,2,0,1,1,.6,1.378A2,2,0,0,1,78.861,29.185Z" fill="#fff"/>
  </g>
</svg>
