<?xml version="1.0" encoding="UTF-8"?>
<svg version="1.1" xmlns="http://www.w3.org/2000/svg" width="1040" height="340">
<path d="M0 0 C3.63898169 1.77133401 7.10676407 3.70897395 10.58203125 5.77734375 C11.83015896 6.49968408 13.07887035 7.22101668 14.328125 7.94140625 C17.11801027 9.56231226 19.89374128 11.2052748 22.6640625 12.859375 C28.41566143 16.28603686 34.21757901 19.62437792 40.01953125 22.96484375 C41.12586914 23.60228516 42.23220703 24.23972656 43.37207031 24.89648438 C45.64358802 26.20514004 47.91523622 27.51356924 50.18701172 28.82177734 C56.72968196 32.59042315 63.26929924 36.36436825 69.80786133 40.14013672 C75.3447391 43.33665886 80.88557777 46.52596853 86.43359375 49.703125 C92.83115271 53.36940432 99.21105301 57.06510311 105.58203125 60.77734375 C106.8644873 61.51839355 106.8644873 61.51839355 108.17285156 62.27441406 C126.1671592 72.72628575 126.1671592 72.72628575 129.15083694 83.46550751 C130.11918135 88.65725902 129.87632443 93.9862638 129.87255859 99.24902344 C129.87855035 100.61150478 129.88535738 101.97398274 129.89291382 103.3364563 C129.91051711 107.02263154 129.91526684 110.70871381 129.91654539 114.39492702 C129.91797099 116.70284162 129.92224834 119.01073288 129.92753983 121.31864166 C129.94602269 129.38431793 129.95421279 137.44992826 129.95263672 145.515625 C129.95143641 153.01092393 129.9725214 160.5059344 130.00412405 168.00116038 C130.03035701 174.45493688 130.04100106 180.90861959 130.0397259 187.36244893 C130.03921824 191.20868287 130.04479167 195.05466036 130.066082 198.90084076 C130.08558292 202.52239058 130.08550912 206.14344246 130.07104874 209.76501083 C130.0679927 211.71066478 130.08455455 213.65631942 130.10192871 215.60189819 C130.04072407 224.23278057 128.95182964 232.3059048 123.62915039 239.36865234 C117.77579151 244.11499137 111.66276859 247.85681041 105.01953125 251.40234375 C102.78670983 252.62308035 100.55496484 253.84578759 98.32421875 255.0703125 C97.19854492 255.68567871 96.07287109 256.30104492 94.91308594 256.93505859 C89.77387387 259.77736981 84.70769365 262.73975697 79.64453125 265.71484375 C77.6537926 266.88176084 75.66290591 268.0484254 73.671875 269.21484375 C72.67526855 269.79878906 71.67866211 270.38273437 70.65185547 270.984375 C62.09384386 275.98278738 53.49619261 280.91321199 44.90820312 285.85986328 C41.5114944 287.81800702 38.11680667 289.77961302 34.72265625 291.7421875 C15.3149524 302.96198392 15.3149524 302.96198392 6.14453125 308.15234375 C5.50628418 308.51569824 4.86803711 308.87905273 4.21044922 309.25341797 C-2.96303278 313.29162986 -9.26934139 313.72043362 -17.41796875 312.77734375 C-22.46054842 311.08619708 -26.8644389 308.47264676 -31.41796875 305.77734375 C-33.16209436 304.7696796 -34.9069406 303.76326217 -36.65234375 302.7578125 C-40.71235295 300.40822236 -44.75943841 298.0377889 -48.80078125 295.65625 C-55.63813737 291.63457641 -62.52440965 287.70139521 -69.41796875 283.77734375 C-79.1276124 278.24562219 -88.80473305 272.66138711 -98.44750977 267.01367188 C-103.74384446 263.91355123 -109.05070945 260.83311035 -114.375 257.78125 C-114.95900574 257.44608871 -115.54301147 257.11092743 -116.14471436 256.76560974 C-118.9624121 255.14859381 -121.78164391 253.53440533 -124.60400391 251.92553711 C-146.27004556 239.49776421 -146.27004556 239.49776421 -149.47625732 229.46617126 C-150.90477425 223.51786378 -150.69665131 217.51986245 -150.67675781 211.43579102 C-150.6794722 210.0994752 -150.68303563 208.76316088 -150.68737793 207.42684937 C-150.69645191 203.81729207 -150.69297817 200.20784984 -150.68661976 196.59829068 C-150.68153275 192.80819482 -150.68625879 189.01810837 -150.68939209 185.22801208 C-150.69302434 178.86382288 -150.6882526 172.49968018 -150.67871094 166.13549805 C-150.66783249 158.79529513 -150.67135051 151.45520339 -150.68236375 144.11500317 C-150.69146339 137.79542328 -150.6927087 131.47587671 -150.68748641 125.15629238 C-150.68438079 121.38958761 -150.68391831 117.62293495 -150.69055939 113.8562336 C-150.69637113 110.3127578 -150.69226654 106.76942416 -150.68077087 103.22596359 C-150.67689953 101.31812989 -150.68277751 99.41028406 -150.68902588 97.50245667 C-150.64507107 88.51181395 -150.41043496 79.90106186 -144.4453125 72.71484375 C-140.66336903 69.10050086 -136.24994806 66.6403331 -131.71435547 64.078125 C-129.03282823 62.55918208 -126.36803956 61.01274648 -123.703125 59.46484375 C-118.68451713 56.55409764 -113.65757973 53.65819543 -108.62631226 50.76939392 C-102.55162386 47.28111485 -96.48469421 43.77944666 -90.41796875 40.27734375 C-88.25133734 39.02728263 -86.08467061 37.77728275 -83.91796875 36.52734375 C-82.84546875 35.90859375 -81.77296875 35.28984375 -80.66796875 34.65234375 C-77.41796875 32.77734375 -74.16796875 30.90234375 -70.91796875 29.02734375 C-69.84401855 28.40770752 -68.77006836 27.78807129 -67.66357422 27.1496582 C-65.51172961 25.908309 -63.35971327 24.66725746 -61.20751953 23.42651367 C-56.16244813 20.51754372 -51.11908454 17.60573852 -46.08197021 14.68301392 C-44.30116874 13.64991435 -42.51981017 12.61778204 -40.73828125 11.5859375 C-38.50539792 10.29228287 -36.27355965 8.99682211 -34.04296875 7.69921875 C-31.17769465 6.04056771 -28.30363048 4.40022971 -25.41796875 2.77734375 C-24.66499512 2.35267822 -23.91202148 1.9280127 -23.13623047 1.49047852 C-15.64836232 -2.51966705 -8.06925176 -2.88648663 0 0 Z " fill="#187F9A" transform="translate(156.41796875,27.22265625)"/>
<path d="M0 0 C1.94751432 1.69126243 3.85370041 3.41035199 5.7265625 5.18359375 C6.40460938 4.7246875 7.08265625 4.26578125 7.78125 3.79296875 C23.46858635 -6.54937488 39.39094611 -10.21235208 58.0390625 -6.56640625 C68.63908058 -4.02193288 77.47030823 0.59502105 83.55859375 10.01953125 C90.32003638 22.81856377 90.0012233 35.29723761 89.921875 49.41015625 C89.91813939 51.36884415 89.91529501 53.32753392 89.91329956 55.28622437 C89.90570625 60.41210191 89.88609521 65.53786399 89.8638916 70.66369629 C89.84333997 75.90598998 89.83427801 81.14830254 89.82421875 86.390625 C89.80284483 96.6550065 89.76769826 106.91927241 89.7265625 117.18359375 C81.1465625 117.18359375 72.5665625 117.18359375 63.7265625 117.18359375 C63.70468872 113.37622681 63.70468872 113.37622681 63.68237305 109.49194336 C63.631976 101.09397622 63.56537181 92.69619351 63.49084759 84.29840755 C63.44617095 79.20815052 63.40690877 74.11797303 63.38012695 69.02758789 C63.35406711 64.11262807 63.31364551 59.19797477 63.26337624 54.28320503 C63.24672569 52.41062808 63.23520014 50.53799813 63.22894859 48.66535759 C63.21928779 46.03691554 63.19120512 43.40925446 63.15893555 40.78100586 C63.16037064 40.01136002 63.16180573 39.24171417 63.1632843 38.44874573 C63.05237389 32.0370551 61.56826539 27.42350267 57.4140625 22.37109375 C50.61274848 16.83514048 42.06000684 17.49865312 33.7265625 18.18359375 C28.31756622 19.37553435 24.87788131 21.41154803 21.7265625 25.99609375 C18.28250953 31.79597462 18.57348303 38.76027094 18.52124023 45.32202148 C18.51134064 46.10332932 18.50144104 46.88463715 18.49124146 47.68962097 C18.45988307 50.24877995 18.43497155 52.80795744 18.41015625 55.3671875 C18.38956451 57.15080727 18.36856748 58.9344224 18.34718323 60.71803284 C18.29219176 65.39505236 18.24268211 70.07211424 18.19433594 74.74920654 C18.14395273 79.5288059 18.08835476 84.30834433 18.03320312 89.08789062 C17.92590225 98.45307471 17.82487821 107.81831103 17.7265625 117.18359375 C9.4765625 117.18359375 1.2265625 117.18359375 -7.2734375 117.18359375 C-7.28802002 114.71640869 -7.30260254 112.24922363 -7.31762695 109.70727539 C-7.36808561 101.5328374 -7.43470041 93.35858765 -7.50915241 85.18433475 C-7.55377711 80.2308981 -7.59305052 75.27754219 -7.61987305 70.32397461 C-7.64598499 65.53867955 -7.68644283 60.75369655 -7.73662376 55.9685955 C-7.75323925 54.14791194 -7.76478651 52.32717446 -7.77105141 50.50642586 C-7.7807507 47.94544296 -7.80887811 45.38524893 -7.84106445 42.82446289 C-7.83962936 42.08070908 -7.83819427 41.33695526 -7.8367157 40.57066345 C-7.956275 33.79323581 -9.33514284 27.5809582 -13.6484375 22.24609375 C-20.59714161 16.78639767 -28.88163818 17.50317759 -37.2734375 18.18359375 C-42.61883051 19.62303728 -46.34964962 22.4605518 -49.2734375 27.18359375 C-51.24591983 31.99712291 -51.57775846 36.43871846 -51.59228516 41.57568359 C-51.60233078 42.39585968 -51.6123764 43.21603577 -51.62272644 44.06106567 C-51.65346659 46.75554747 -51.67056795 49.44993032 -51.6875 52.14453125 C-51.70621903 54.0192652 -51.72579299 55.89399078 -51.7461853 57.76870728 C-51.79743482 62.69068465 -51.83709895 67.61268932 -51.87432861 72.53479004 C-51.91441331 77.56232414 -51.96548527 82.5897454 -52.015625 87.6171875 C-52.11229933 97.47258473 -52.19571521 107.32802882 -52.2734375 117.18359375 C-60.8534375 117.18359375 -69.4334375 117.18359375 -78.2734375 117.18359375 C-78.31875248 106.0301835 -78.3553905 94.87683513 -78.37706184 83.72335339 C-78.38746678 78.54347989 -78.40156547 73.36367304 -78.42431641 68.18383789 C-78.44616264 63.17824467 -78.45803083 58.17271526 -78.46319199 53.16707802 C-78.46686669 51.26426503 -78.47404207 49.36145524 -78.48489761 47.45866966 C-78.65207357 16.92107547 -78.65207357 16.92107547 -67.7109375 4.93359375 C-51.53218592 -9.97978061 -17.84085934 -14.25429483 0 0 Z " fill="#526986" transform="translate(807.2734375,103.81640625)"/>
<path d="M0 0 C10.69722478 7.18032896 19.01956386 17.81445839 21.71875 30.6875 C23.3256495 43.89978476 21.72475692 56.91487137 14 68 C11.76900208 70.76903484 9.44273273 73.41647575 7 76 C7.37511719 76.4846875 7.75023437 76.969375 8.13671875 77.46875 C18.38791067 90.8960039 23.83410075 102.83820295 22 120 C19.67502775 132.75090348 12.91748696 143.87714342 2.65625 151.8125 C-6.29102462 157.62241858 -15.40348881 160 -26 160 C-26 152.08 -26 144.16 -26 136 C-21.05 135.01 -21.05 135.01 -16 134 C-9.68594208 130.66427129 -5.22195316 125.85183792 -3 119 C-2.16054685 111.60397596 -1.86707845 104.73537956 -6.5078125 98.61328125 C-10.89669901 93.86822855 -15.24235456 90.39419441 -21.8671875 89.69921875 C-29.95347626 89.66771373 -34.46275952 90.57248203 -41.1875 95.1875 C-46.13397889 100.13397889 -48.42563494 105.33506649 -48.56114197 112.32611084 C-48.5561116 113.08281067 -48.55108124 113.8395105 -48.54589844 114.61914062 C-48.55623611 115.43960876 -48.56657379 116.2600769 -48.57722473 117.10540771 C-48.60647723 119.78922633 -48.60814814 122.47228504 -48.609375 125.15625 C-48.62436855 127.02813134 -48.64109815 128.8999995 -48.65948486 130.77185059 C-48.70303878 135.67741529 -48.72313091 140.58280156 -48.73822021 145.48852539 C-48.75783451 150.50287372 -48.79979962 155.51703057 -48.83984375 160.53125 C-48.9150165 170.35413985 -48.96331829 180.17689092 -49 190 C-56.92 190 -64.84 190 -73 190 C-73.09073128 179.14190859 -73.16396293 168.2840731 -73.20724869 157.42568684 C-73.22803419 152.38252374 -73.25618478 147.33963571 -73.30175781 142.29663086 C-73.34554035 137.42068504 -73.36920489 132.54500212 -73.37950897 127.66887474 C-73.38684262 125.81792252 -73.40116184 123.96698304 -73.42292023 122.11614418 C-73.60960198 105.56291475 -71.43653278 91.6583946 -60.0390625 78.78515625 C-50.55181029 69.5976871 -40.19931733 65.63960538 -27.35107422 64.62866211 C-20.08616441 64.0385748 -14.87037109 62.3600829 -9.1875 57.6875 C-3.51983143 50.72436432 -2.32830403 46.45375344 -2.6171875 37.3828125 C-3.32482455 31.12961164 -5.40408813 27.6321826 -9.75 23.1875 C-16.83352262 18.41974439 -23.4513969 16.9017853 -32 18 C-38.20153292 19.79321434 -42.52915676 23.63103936 -46 29 C-47.85129856 32.86892472 -48.96008559 36.84034236 -50 41 C-57.59 41 -65.18 41 -73 41 C-73 26.90660623 -68.93344981 16.48547143 -59.2890625 6.13671875 C-42.97773246 -9.08904495 -19.08698996 -11.81575569 0 0 Z " fill="#FCFDFD" transform="translate(174,96)"/>
<path d="M0 0 C11.38141906 9.3498473 17.14869003 23.64361515 19 38 C19.68329328 49.63742249 19.32810222 60.77127251 16 72 C15.74476563 72.8765625 15.48953125 73.753125 15.2265625 74.65625 C10.77715271 87.55545635 0.92939133 98.28610391 -11.1875 104.25 C-25.6225961 110.40590187 -38.47481292 110.2723717 -54 110 C-54 102.41 -54 94.82 -54 87 C-44.0625 86.1875 -44.0625 86.1875 -40.98852539 85.95385742 C-29.38041134 84.92315152 -21.88538608 81.8228096 -14 73 C-7.18686785 63.83092496 -6.2056067 51.17585217 -7.5625 40.125 C-9.10870592 32.08472919 -12.46718886 25.06067652 -18 19 C-20.85841959 17.17388974 -20.85841959 17.17388974 -24 15.75 C-25.03125 15.24984375 -26.0625 14.7496875 -27.125 14.234375 C-35.93712099 10.45091001 -46.70406353 10.79197235 -55.69140625 13.96484375 C-64.69558146 18.00224888 -71.1246663 23.87894805 -74.8125 33.125 C-77.22045177 39.92563954 -77.16535827 46.84020959 -77.20532227 53.96240234 C-77.22017166 55.60231644 -77.22017166 55.60231644 -77.23532104 57.27536011 C-77.26683733 60.87886409 -77.29165446 64.48238124 -77.31640625 68.0859375 C-77.3369843 70.5884332 -77.35798099 73.09092549 -77.37937927 75.59341431 C-77.42888086 81.50057415 -77.47416885 87.40775672 -77.51740164 93.31496489 C-77.5717351 100.70350177 -77.63263548 108.0919821 -77.69335938 115.48046875 C-77.80083339 128.65360898 -77.90180554 141.82678733 -78 155 C-86.25 155 -94.5 155 -103 155 C-103.11331486 139.49992238 -103.20523111 124.00005313 -103.25906086 108.49967194 C-103.28473072 101.30089887 -103.3196632 94.10240337 -103.37719727 86.90380859 C-103.42737959 80.62200479 -103.4593723 74.34040221 -103.47044247 68.05840349 C-103.47690342 64.73868871 -103.49455864 61.42000071 -103.52865028 58.10038757 C-103.73237648 37.42592291 -102.71059372 19.14006481 -87.8125 3.3125 C-64.40653286 -18.87808192 -25.05174068 -20.44044682 0 0 Z " fill="#526986" transform="translate(557,110)"/>
<path d="M0 0 C1.08539062 -0.01160156 2.17078125 -0.02320312 3.2890625 -0.03515625 C19.28304795 0.02210145 33.23406896 5.24668863 45.390625 15.69921875 C60.8140298 31.51513535 63 50.99064742 63 72.375 C30.33 72.375 -2.34 72.375 -36 72.375 C-32.18546654 82.864967 -29.30007589 89.87562365 -19.28515625 94.5859375 C-12.00115409 97.10109722 -5.65733001 97.63622139 2 97.5 C5.3 97.45875 8.6 97.4175 12 97.375 C12 105.625 12 113.875 12 122.375 C-10.60951811 122.96609851 -29.70271793 122.96364049 -47.3125 106.8125 C-58.88518683 94.55140575 -62.55078699 78.82084975 -62.375 62.375 C-62.38660156 61.28960937 -62.39820313 60.20421875 -62.41015625 59.0859375 C-62.35076876 42.49703325 -56.76986546 28.549243 -45.25 16.5234375 C-32.43246845 4.28447508 -17.51607882 -0.1872265 0 0 Z M-30 37.375 C-32.57868122 40.8863957 -33.93428981 44.11215925 -35 48.375 C-11.9 48.375 11.2 48.375 35 48.375 C30.3570919 36.76772976 26.85889406 31.7876376 16 26.375 C-0.31287139 20.2922344 -18.59552484 24.39144367 -30 37.375 Z " fill="#526986" transform="translate(977,97.625)"/>
<path d="M0 0 C9.24508687 7.28050591 16.19327182 17.77350305 18.25390625 29.5 C19.67605185 43.76660353 17.71435519 57.47438633 8.84375 69.1484375 C7.44160199 70.79530002 5.97701566 72.38868673 4.5 73.96875 C5.95924941 77.14008907 7.77572814 79.74902726 9.875 82.53125 C17.76611754 93.6610137 20.05794681 106.63084871 18.0390625 120.02734375 C15.26503244 132.57575032 8.86899072 143.98946337 -2.19238281 151.04882812 C-11.6474823 156.50349417 -19.52566924 158.96875 -30.5 158.96875 C-30.5 150.71875 -30.5 142.46875 -30.5 133.96875 C-25.55 132.97875 -25.55 132.97875 -20.5 131.96875 C-14.15158438 128.78495244 -9.74118081 123.69229242 -7.5 116.96875 C-6.60571563 108.57525245 -7.49145158 101.90170252 -12.5 94.96875 C-17.49445195 89.57214737 -23.26325596 88.94240747 -30.5 86.96875 C-30.5 79.04875 -30.5 71.12875 -30.5 62.96875 C-27.2 61.97875 -23.9 60.98875 -20.5 59.96875 C-14.04134642 56.43476974 -10.01994638 52.09528857 -7.5625 45.21875 C-5.70429489 38.14695228 -7.13660709 32.01862256 -10.5625 25.65625 C-14.13521206 20.49566592 -18.97292682 17.86020806 -24.98828125 16.33984375 C-31.90180676 15.3184053 -37.50763186 16.5701731 -43.4765625 20.15625 C-49.78389033 24.88003595 -51.65304309 31.58092235 -53.5 38.96875 C-61.42 38.96875 -69.34 38.96875 -77.5 38.96875 C-77.5 25.73816872 -74.83915076 17.17487481 -66.5 6.96875 C-65.98824219 6.33195312 -65.47648437 5.69515625 -64.94921875 5.0390625 C-48.35146779 -13.49440632 -19.45725416 -13.34858134 0 0 Z " fill="#526986" transform="translate(411.5,106.03125)"/>
<path d="M0 0 C2.660625 0.020625 5.32125 0.04125 8.0625 0.0625 C8.0625 7.9825 8.0625 15.9025 8.0625 24.0625 C5.29875 24.330625 2.535 24.59875 -0.3125 24.875 C-11.55429119 26.09144371 -22.6955685 27.82435001 -30.50390625 36.87890625 C-37.22208408 46.80576603 -37.40156618 57.7709065 -37.44921875 69.3515625 C-37.4660953 70.90670156 -37.48424947 72.46182722 -37.50361633 74.01693726 C-37.55079993 78.07741101 -37.58081265 82.13783046 -37.60705566 86.19848633 C-37.63702235 90.35508955 -37.68349664 94.51150613 -37.72851562 98.66796875 C-37.81418812 106.79940215 -37.88016324 114.93081739 -37.9375 123.0625 C-46.5175 123.0625 -55.0975 123.0625 -63.9375 123.0625 C-64.02852592 114.2119801 -64.10162869 105.36178029 -64.14474869 96.51089478 C-64.16546303 92.3993363 -64.19347749 88.28811965 -64.23925781 84.17675781 C-64.28330207 80.19556408 -64.30675787 76.21469527 -64.31700897 72.23327637 C-64.32429697 70.7280975 -64.33852195 69.22293272 -64.36042023 67.71789551 C-64.62254107 48.92395635 -60.6182247 31.2231059 -47.22265625 17.24609375 C-34.0984664 4.70520123 -17.92708882 -0.19811844 0 0 Z " fill="#526986" transform="translate(655.9375,96.9375)"/>
<path d="M0 0 C8.58 0 17.16 0 26 0 C26 40.92 26 81.84 26 124 C17.42 124 8.84 124 0 124 C0 83.08 0 42.16 0 0 Z " fill="#526986" transform="translate(680,97)"/>
<path d="M0 0 C2 1 2 1 3 3 C3.70779977 8.57392317 3.70779977 8.57392317 3 11 C-0.21214467 13.80836264 -3.56248528 16.03443084 -7.26171875 18.14453125 C-8.79602539 19.02431641 -8.79602539 19.02431641 -10.36132812 19.921875 C-11.45896484 20.54578125 -12.55660156 21.1696875 -13.6875 21.8125 C-14.84986717 22.47741412 -16.01197181 23.14278737 -17.17382812 23.80859375 C-19.5854146 25.1900913 -21.99811344 26.56961565 -24.41162109 27.94775391 C-29.95170929 31.1133854 -35.47496834 34.30818992 -41 37.5 C-43.16397277 38.74885342 -45.32803558 39.99755082 -47.4921875 41.24609375 C-48.56436523 41.86468262 -49.63654297 42.48327148 -50.74121094 43.12060547 C-54.01699566 45.00980166 -57.29355893 46.89764109 -60.5703125 48.78515625 C-73.23231844 56.08082074 -85.87465456 63.40891957 -98.4921875 70.78125 C-99.83361816 71.55855469 -99.83361816 71.55855469 -101.20214844 72.3515625 C-103.2001014 73.52871594 -105.18086359 74.73524778 -107.14941406 75.9609375 C-108.19581055 76.60289063 -109.24220703 77.24484375 -110.3203125 77.90625 C-111.73594482 78.79280273 -111.73594482 78.79280273 -113.18017578 79.69726562 C-116.39350378 81.18179534 -118.49923525 81.32599455 -122 81 C-124.3125 79.9375 -124.3125 79.9375 -126 78 C-127 74.625 -127 74.625 -127 71 C-124.00700397 66.16338012 -120.13658312 64.10517787 -115.25 61.5625 C-113.61840526 60.68486425 -111.98827078 59.80450996 -110.359375 58.921875 C-109.48990234 58.45201172 -108.62042969 57.98214844 -107.72460938 57.49804688 C-102.92959218 54.86164674 -98.21822107 52.08328557 -93.5 49.3125 C-81.79782624 42.45770149 -70.05603536 35.67352215 -58.30419922 28.90429688 C-53.86340965 26.3449531 -49.42510397 23.78132154 -44.98730469 21.21679688 C-42.8057686 19.95784589 -40.62284693 18.7012925 -38.43847656 17.44726562 C-33.25817844 14.47219054 -28.09926917 11.47048848 -22.98046875 8.390625 C-22.03276611 7.82819092 -21.08506348 7.26575684 -20.10864258 6.6862793 C-18.34612131 5.6393445 -16.59133318 4.57922492 -14.84643555 3.50317383 C-9.58438122 0.40281084 -6.11628085 -0.6548336 0 0 Z " fill="#187F9A" transform="translate(127,0)"/>
<path d="M0 0 C4.29 0 8.58 0 13 0 C13 3.96 13 7.92 13 12 C17.29 12 21.58 12 26 12 C26 16.62 26 21.24 26 26 C21.71 26 17.42 26 13 26 C13 29.96 13 33.92 13 38 C8.71 38 4.42 38 0 38 C0 34.04 0 30.08 0 26 C-3.96 26 -7.92 26 -12 26 C-12 21.38 -12 16.76 -12 12 C-8.04 12 -4.08 12 0 12 C0 8.04 0 4.08 0 0 Z M1 13 C1 16.96 1 20.92 1 25 C4.96 25 8.92 25 13 25 C13 21.04 13 17.08 13 13 C9.04 13 5.08 13 1 13 Z " fill="#187F9A" transform="translate(686,48)"/>
<path d="M0 0 C0.763125 0.721875 1.52625 1.44375 2.3125 2.1875 C2.3125 6.1875 2.3125 6.1875 0.8125 7.9375 C0.3175 8.35 -0.1775 8.7625 -0.6875 9.1875 C-1.244375 8.89875 -1.80125 8.61 -2.375 8.3125 C-3.138125 7.94125 -3.90125 7.57 -4.6875 7.1875 C-5.47125 6.795625 -6.255 6.40375 -7.0625 6 C-10.44743067 4.95228336 -12.30559468 5.13065459 -15.6875 6.1875 C-18.6875 8.1875 -18.6875 8.1875 -20.6875 11.1875 C-21.19701861 15.33643725 -21.23416957 18.74949608 -18.6875 22.1875 C-15.06530279 24.97380555 -11.04477553 24.46861455 -6.6875 24.1875 C-6.0275 23.5275 -5.3675 22.8675 -4.6875 22.1875 C-6.9975 21.8575 -9.3075 21.5275 -11.6875 21.1875 C-11.6875 18.8775 -11.6875 16.5675 -11.6875 14.1875 C-6.0775 14.1875 -0.4675 14.1875 5.3125 14.1875 C5.3125 21.44568702 4.7608752 23.92062376 0.3125 29.1875 C-4.28357388 32.77467962 -9.20810655 32.69250824 -14.84375 32.5390625 C-20.06533235 31.89353721 -22.63814647 29.37865806 -26 25.5625 C-29.79406114 20.22271024 -29.36381882 14.56313476 -28.6875 8.1875 C-26.72643 3.37840303 -23.38975711 0.35777251 -18.6875 -1.8125 C-12.8127542 -3.69494543 -5.32294739 -3.22679865 0 0 Z " fill="#526986" transform="translate(571.6875,232.8125)"/>
<path d="M0 0 C7 0 7 0 8.80444336 1.56054688 C9.22862549 2.27275391 9.65280762 2.98496094 10.08984375 3.71875 C10.56357422 4.48574219 11.03730469 5.25273437 11.52539062 6.04296875 C11.99138672 6.85378906 12.45738281 7.66460937 12.9375 8.5 C13.43056641 9.31082031 13.92363281 10.12164062 14.43164062 10.95703125 C15.64383978 12.95774831 16.82499869 14.97721294 18 17 C18.33 11.39 18.66 5.78 19 0 C21.64 0 24.28 0 27 0 C27 10.89 27 21.78 27 33 C19 33 19 33 17.08203125 31.43945312 C16.66308594 30.72724609 16.24414062 30.01503906 15.8125 29.28125 C15.34199219 28.51425781 14.87148438 27.74726563 14.38671875 26.95703125 C13.92910156 26.14621094 13.47148438 25.33539063 13 24.5 C12.51144531 23.68917969 12.02289062 22.87835938 11.51953125 22.04296875 C10.32021071 20.04410119 9.15652969 18.02392696 8 16 C7.67 21.61 7.34 27.22 7 33 C4.69 33 2.38 33 0 33 C0 22.11 0 11.22 0 0 Z " fill="#526986" transform="translate(614,231)"/>
<path d="M0 0 C0.66 0 1.32 0 2 0 C3.32 0 4.64 0 6 0 C6.33 1.65 6.66 3.3 7 5 C7.61875 4.360625 8.2375 3.72125 8.875 3.0625 C12.36206586 -0.3220051 15.03334969 -0.3823521 19.734375 -0.3671875 C23.28011109 0.20746628 24.87153111 2.25358853 27 5 C27.33 3.35 27.66 1.7 28 0 C28.804375 0.185625 29.60875 0.37125 30.4375 0.5625 C31.283125 0.706875 32.12875 0.85125 33 1 C33.33 0.67 33.66 0.34 34 0 C41.12746586 -0.58421851 41.12746586 -0.58421851 44.24609375 1.50390625 C46.69765749 4.99288003 46.43799796 8.15742894 46.25 12.25 C46.23195313 12.99507813 46.21390625 13.74015625 46.1953125 14.5078125 C46.14835649 16.33909701 46.07661652 18.16971649 46 20 C45.01 20 44.02 20 43 20 C42.95101562 18.94039063 42.90203125 17.88078125 42.8515625 16.7890625 C42.77653291 15.40101503 42.70098515 14.01299549 42.625 12.625 C42.5940625 11.92632812 42.563125 11.22765625 42.53125 10.5078125 C42.40500502 6.29814173 42.40500502 6.29814173 40 3 C37.46048456 3.09111938 37.46048456 3.09111938 35 4 C32.65229357 7.52155964 32.62330386 9.50771843 32.375 13.6875 C32.30023437 14.86699219 32.22546875 16.04648437 32.1484375 17.26171875 C32.09945312 18.16535156 32.05046875 19.06898438 32 20 C30.68 20 29.36 20 28 20 C28 16.7 28 13.4 28 10 C22.06 10 16.12 10 10 10 C12.16200562 15.96839425 12.16200562 15.96839425 15.4375 17 C18.27370464 17 19.66642207 16.58349931 22 15 C22.33 14.34 22.66 13.68 23 13 C24.32 13.33 25.64 13.66 27 14 C25.63016497 17.16115776 25.0109362 17.9927092 22 20 C18.03114189 20.63905342 13.73292897 21.10033322 10.234375 18.87890625 C8.875 17.5 8.875 17.5 7 15 C6.82984375 15.61488281 6.6596875 16.22976563 6.484375 16.86328125 C6.24203125 17.67152344 5.9996875 18.47976563 5.75 19.3125 C5.51796875 20.11300781 5.2859375 20.91351563 5.046875 21.73828125 C3.76741689 24.50248366 2.64719184 25.51418717 0 27 C-4.88454323 27.88160049 -8.85260823 27.68843506 -13.125 25.125 C-15 23 -15 23 -15 21 C-13.68 21 -12.36 21 -11 21 C-11 21.66 -11 22.32 -11 23 C-4.71148966 24.29616272 -4.71148966 24.29616272 1 22 C1 21.01 1 20.02 1 19 C0.34 19.33 -0.32 19.66 -1 20 C-6.24768331 20.34411038 -9.81689172 20.5679453 -14 17 C-15.85187561 13.9696581 -16 12.06796099 -16 8.5 C-14.97764969 4.92177392 -13.89756335 3.10049608 -10.890625 0.8671875 C-7.36168739 -0.75145744 -3.78443502 -0.34059915 0 0 Z M-11 5 C-12.44430855 7.88861709 -12.37688506 9.79647701 -12 13 C-10.02033737 16.06307631 -10.02033737 16.06307631 -7 18 C-3.79268852 18 -1.8994965 17.50971468 0.875 15.9375 C2.7222227 12.75617201 2.76956284 9.50892416 2 6 C-0.165205 3.40005897 -0.165205 3.40005897 -3 2 C-6.60777515 2 -8.06295544 2.9904432 -11 5 Z M12.125 4.375 C9.89513363 6.56665514 9.89513363 6.56665514 10 8 C14.62 8 19.24 8 24 8 C21.6402739 2.91291349 21.6402739 2.91291349 18.125 1.875 C14.78084222 1.69286651 14.78084222 1.69286651 12.125 4.375 Z " fill="#526986" transform="translate(821,278)"/>
<path d="M0 0 C2.64 0 5.28 0 8 0 C9.7132732 4.37659283 11.42215493 8.75486459 13.12695312 13.13476562 C13.7077731 14.62514709 14.28979968 16.11505891 14.87304688 17.60449219 C15.71019528 19.74292231 16.54301894 21.88299257 17.375 24.0234375 C17.63748535 24.69120209 17.8999707 25.35896667 18.17041016 26.04696655 C20 30.77225659 20 30.77225659 20 33 C17.36 33 14.72 33 12 33 C11.34 31.35 10.68 29.7 10 28 C6.04 28 2.08 28 -2 28 C-2.99 30.475 -2.99 30.475 -4 33 C-6.64 33 -9.28 33 -12 33 C-9.88804509 25.43137471 -7.22216627 18.17004844 -4.3125 10.875 C-3.68891602 9.2971875 -3.68891602 9.2971875 -3.05273438 7.6875 C-2.03880049 5.12352925 -1.02117166 2.56109468 0 0 Z M3 12 C1.74335022 14.90600261 1 16.79604584 1 20 C2.98 20 4.96 20 7 20 C6.34 17.36 5.68 14.72 5 12 C4.34 12 3.68 12 3 12 Z " fill="#526986" transform="translate(516,231)"/>
<path d="M0 0 C0 4 0 4 -1.5 5.75 C-1.995 6.1625 -2.49 6.575 -3 7 C-3.556875 6.71125 -4.11375 6.4225 -4.6875 6.125 C-5.450625 5.75375 -6.21375 5.3825 -7 5 C-7.78375 4.608125 -8.5675 4.21625 -9.375 3.8125 C-12.75993067 2.76478336 -14.61809468 2.94315459 -18 4 C-21 6 -21 6 -23 9 C-23.51521375 13.19531196 -23.47609387 16.48134029 -21 20 C-17.31505351 22.45663099 -14.28197515 22.59611811 -10 22 C-8.32665961 21.01120795 -6.65848177 20.01351664 -5 19 C-1.63894049 19.96030272 -0.98866286 21.01700571 1 24 C-5.10332441 29.28954782 -8.87874518 30.36011163 -17.05078125 30.28125 C-22.35514925 29.77540299 -24.91656221 27.22984831 -28.3125 23.375 C-31.96132623 18.23961494 -31.55086758 13.14610824 -31 7 C-29.72920494 2.67470356 -27.32688633 -0.05417861 -23.5 -2.375 C-14.86134296 -6.38580505 -7.8454279 -5.17464393 0 0 Z " fill="#526986" transform="translate(681,235)"/>
<path d="M0 0 C6.27 0 12.54 0 19 0 C19 2.31 19 4.62 19 7 C15.04 7 11.08 7 7 7 C7 8.65 7 10.3 7 12 C10.96 12 14.92 12 19 12 C19 14.31 19 16.62 19 19 C15.04 19 11.08 19 7 19 C7 21.31 7 23.62 7 26 C10.96 26 14.92 26 19 26 C19 28.31 19 30.62 19 33 C12.73 33 6.46 33 0 33 C0 22.11 0 11.22 0 0 Z " fill="#526986" transform="translate(586,231)"/>
<path d="M0 0 C2.44892991 1.4314519 3.9942314 2.94280144 6 5 C6.680625 4.175 7.36125 3.35 8.0625 2.5 C13.11674438 -1.86558821 20.83195091 -0.27052847 27 0 C27 6.6 27 13.2 27 20 C11.73214286 20.66964286 11.73214286 20.66964286 8.125 17.75 C6 15 6 15 5 11 C-0.61 10.67 -6.22 10.34 -12 10 C-9.83799438 15.96839425 -9.83799438 15.96839425 -6.5625 17 C-3.72629536 17 -2.33357793 16.58349931 0 15 C0.33 14.34 0.66 13.68 1 13 C2.32 13.33 3.64 13.66 5 14 C3.63016497 17.16115776 3.0109362 17.9927092 0 20 C-4.99620813 20.80447419 -8.81632667 20.79716775 -13.0625 17.9375 C-15.39595144 14.39968652 -16 12.2362654 -16 8 C-14.09168169 2.67679629 -14.09168169 2.67679629 -11.16015625 0.859375 C-7.45416027 -0.61498145 -3.91058279 -0.69566499 0 0 Z M-9.875 4.375 C-12.10486637 6.56665514 -12.10486637 6.56665514 -12 8 C-7.38 8 -2.76 8 2 8 C-0.3597261 2.91291349 -0.3597261 2.91291349 -3.875 1.875 C-7.21915778 1.69286651 -7.21915778 1.69286651 -9.875 4.375 Z M10 5 C8.57958179 7.84083641 8.68547728 9.85477278 9 13 C10.93147423 15.64683505 12.41539097 16.7601604 15.4375 18 C18.16468481 18.21726981 18.16468481 18.21726981 20.75 16.375 C23.25156707 13.73445698 24 12.61806231 24 9 C22.37844371 5.51365399 21.23546708 4.15697806 18 2 C14.39222485 2 12.93704456 2.9904432 10 5 Z " fill="#526986" transform="translate(638,278)"/>
<path d="M0 0 C2.64 0 5.28 0 8 0 C9.65 2.97 11.3 5.94 13 9 C15.95724036 5.35587053 15.95724036 5.35587053 17.25 2.25 C18.11625 1.13625 18.11625 1.13625 19 0 C22.6875 -0.3125 22.6875 -0.3125 26 0 C25.40632923 4.42779452 23.68213828 7.56957047 21.5 11.4375 C17.64944234 18.60630683 16.91306846 24.82843499 17 33 C14.69 33 12.38 33 10 33 C10.03222656 32.20980469 10.06445312 31.41960937 10.09765625 30.60546875 C9.97762393 18.93566021 5.39383111 10.13110669 0 0 Z " fill="#526986" transform="translate(688,231)"/>
<path d="M0 0 C0.99 0 1.98 0 3 0 C3.33 1.65 3.66 3.3 4 5 C4.804375 4.175 5.60875 3.35 6.4375 2.5 C9.89005778 -0.42519812 12.65083948 -0.43745003 17.046875 -0.17578125 C17.69140625 -0.11777344 18.3359375 -0.05976563 19 0 C19.66 0 20.32 0 21 0 C22.32 0 23.64 0 25 0 C25.0875127 3.22899426 25.14056146 6.45768116 25.1875 9.6875 C25.21263672 10.59951172 25.23777344 11.51152344 25.26367188 12.45117188 C25.35728419 21.03230051 25.35728419 21.03230051 22 25 C17.7638827 27.8240782 13.97561204 27.66552772 9 27 C5.875 25.125 5.875 25.125 4 23 C4 22.34 4 21.68 4 21 C5.32 21 6.64 21 8 21 C8 21.66 8 22.32 8 23 C14.28851034 24.29616272 14.28851034 24.29616272 20 22 C20 21.01 20 20.02 20 19 C19.34 19.33 18.68 19.66 18 20 C12.65290626 20.3506291 9.37127693 20.44403637 5 17 C4.67 16.34 4.34 15.68 4 15 C3.67 16.65 3.34 18.3 3 20 C2.01 20 1.02 20 0 20 C0 13.4 0 6.8 0 0 Z M8 5 C6.55569145 7.88861709 6.62311494 9.79647701 7 13 C8.97966263 16.06307631 8.97966263 16.06307631 12 18 C15.20731148 18 17.1005035 17.50971468 19.875 15.9375 C21.7222227 12.75617201 21.76956284 9.50892416 21 6 C18.834795 3.40005897 18.834795 3.40005897 16 2 C12.39222485 2 10.93704456 2.9904432 8 5 Z " fill="#526986" transform="translate(527,278)"/>
<path d="M0 0 C0.99 0 1.98 0 3 0 C3 2.64 3 5.28 3 8 C4.32 8 5.64 8 7 8 C7 5.36 7 2.72 7 0 C8.32 0 9.64 0 11 0 C11.33 2.97 11.66 5.94 12 9 C12.66 8.67 13.32 8.34 14 8 C20.16130398 7.42950889 20.16130398 7.42950889 23.2109375 9.50390625 C25.7079282 12.98769895 25.43877626 16.1404861 25.25 20.25 C25.23195313 20.99507813 25.21390625 21.74015625 25.1953125 22.5078125 C25.14835649 24.33909701 25.07661652 26.16971649 25 28 C24.01 28 23.02 28 22 28 C21.95101562 27.02417969 21.90203125 26.04835938 21.8515625 25.04296875 C21.77679687 23.77066406 21.70203125 22.49835938 21.625 21.1875 C21.55539062 19.92292969 21.48578125 18.65835937 21.4140625 17.35546875 C21.23897061 13.87244766 21.23897061 13.87244766 19 11 C16.56282742 11.27034634 16.56282742 11.27034634 14 12 C11.65229357 15.52155964 11.62330386 17.50771843 11.375 21.6875 C11.30023437 22.86699219 11.22546875 24.04648437 11.1484375 25.26171875 C11.09945312 26.16535156 11.05046875 27.06898438 11 28 C9.68 28 8.36 28 7 28 C7 22.06 7 16.12 7 10 C5.68 10 4.36 10 3 10 C3 15.94 3 21.88 3 28 C2.01 28 1.02 28 0 28 C0 22.06 0 16.12 0 10 C-1.32 10 -2.64 10 -4 10 C-4 9.34 -4 8.68 -4 8 C-2.68 8 -1.36 8 0 8 C0 5.36 0 2.72 0 0 Z " fill="#526986" transform="translate(675,270)"/>
<path d="M0 0 C0.99 0 1.98 0 3 0 C3 9.24 3 18.48 3 28 C1.68 27.67 0.36 27.34 -1 27 C-1.66 27.33 -2.32 27.66 -3 28 C-7.507957 28.63111398 -11.68984855 28.74989979 -15.5625 26.125 C-18.52206834 22.33068161 -18.88813875 20.10347641 -18.578125 15.3828125 C-17.95793131 12.82660879 -17.38138794 11.68402687 -15.5 9.875 C-11.06463403 7.49891109 -8.95915249 7.43091693 -4 8 C-3.01 8.66 -2.02 9.32 -1 10 C-0.67 6.7 -0.34 3.4 0 0 Z M-14 13 C-15.42041821 15.84083641 -15.31452272 17.85477278 -15 21 C-13.06852577 23.64683505 -11.58460903 24.7601604 -8.5625 26 C-5.83531519 26.21726981 -5.83531519 26.21726981 -3.25 24.375 C-0.74843293 21.73445698 0 20.61806231 0 17 C-1.62155629 13.51365399 -2.76453292 12.15697806 -6 10 C-9.60777515 10 -11.06295544 10.9904432 -14 13 Z " fill="#526986" transform="translate(522,270)"/>
<path d="M0 0 C2.371875 0.0825 4.74375 0.165 7.1875 0.25 C7.1875 6.85 7.1875 13.45 7.1875 20.25 C-8.08035714 20.91964286 -8.08035714 20.91964286 -11.6875 18.125 C-14.05579016 14.92084273 -14.8125 13.22209416 -14.8125 9.25 C-12.94805443 1.41932859 -7.36323366 -0.36353704 0 0 Z M-9.8125 5.25 C-11.23291821 8.09083641 -11.12702272 10.10477278 -10.8125 13.25 C-8.88102577 15.89683505 -7.39710903 17.0101604 -4.375 18.25 C-1.64781519 18.46726981 -1.64781519 18.46726981 0.9375 16.625 C3.43906707 13.98445698 4.1875 12.86806231 4.1875 9.25 C2.56594371 5.76365399 1.42296708 4.40697806 -1.8125 2.25 C-5.42027515 2.25 -6.87545544 3.2404432 -9.8125 5.25 Z " fill="#526986" transform="translate(796.8125,277.75)"/>
<path d="M0 0 C2.371875 0.0825 4.74375 0.165 7.1875 0.25 C7.1875 6.85 7.1875 13.45 7.1875 20.25 C-8.08035714 20.91964286 -8.08035714 20.91964286 -11.6875 18.125 C-14.05579016 14.92084273 -14.8125 13.22209416 -14.8125 9.25 C-12.94805443 1.41932859 -7.36323366 -0.36353704 0 0 Z M-9.8125 5.25 C-11.23291821 8.09083641 -11.12702272 10.10477278 -10.8125 13.25 C-8.88102577 15.89683505 -7.39710903 17.0101604 -4.375 18.25 C-1.64781519 18.46726981 -1.64781519 18.46726981 0.9375 16.625 C3.43906707 13.98445698 4.1875 12.86806231 4.1875 9.25 C2.56594371 5.76365399 1.42296708 4.40697806 -1.8125 2.25 C-5.42027515 2.25 -6.87545544 3.2404432 -9.8125 5.25 Z " fill="#526986" transform="translate(736.8125,277.75)"/>
<path d="M0 0 C2.371875 0.0825 4.74375 0.165 7.1875 0.25 C7.1875 6.85 7.1875 13.45 7.1875 20.25 C-8.08035714 20.91964286 -8.08035714 20.91964286 -11.6875 18.125 C-14.05579016 14.92084273 -14.8125 13.22209416 -14.8125 9.25 C-12.94805443 1.41932859 -7.36323366 -0.36353704 0 0 Z M-9.8125 5.25 C-11.23291821 8.09083641 -11.12702272 10.10477278 -10.8125 13.25 C-8.88102577 15.89683505 -7.39710903 17.0101604 -4.375 18.25 C-1.64781519 18.46726981 -1.64781519 18.46726981 0.9375 16.625 C3.43906707 13.98445698 4.1875 12.86806231 4.1875 9.25 C2.56594371 5.76365399 1.42296708 4.40697806 -1.8125 2.25 C-5.42027515 2.25 -6.87545544 3.2404432 -9.8125 5.25 Z " fill="#526986" transform="translate(581.8125,277.75)"/>
<path d="M0 0 C1.32 0 2.64 0 4 0 C4.33 2.97 4.66 5.94 5 9 C5.66 8.67 6.32 8.34 7 8 C13.16130398 7.42950889 13.16130398 7.42950889 16.2109375 9.50390625 C18.7079282 12.98769895 18.43877626 16.1404861 18.25 20.25 C18.23195313 20.99507813 18.21390625 21.74015625 18.1953125 22.5078125 C18.14835649 24.33909701 18.07661652 26.16971649 18 28 C17.01 28 16.02 28 15 28 C14.95101562 27.02417969 14.90203125 26.04835938 14.8515625 25.04296875 C14.73941406 23.13451172 14.73941406 23.13451172 14.625 21.1875 C14.55539062 19.92292969 14.48578125 18.65835937 14.4140625 17.35546875 C14.23897061 13.87244766 14.23897061 13.87244766 12 11 C9.56282742 11.27034634 9.56282742 11.27034634 7 12 C4.65229357 15.52155964 4.62330386 17.50771843 4.375 21.6875 C4.30023437 22.86699219 4.22546875 24.04648437 4.1484375 25.26171875 C4.09945312 26.16535156 4.05046875 27.06898438 4 28 C2.68 28 1.36 28 0 28 C0 18.76 0 9.52 0 0 Z " fill="#526986" transform="translate(603,270)"/>
<path d="M0 0 C4.37352718 3.18903023 4.91379282 4.56896408 6 10 C0.06 10 -5.88 10 -12 10 C-9.83799438 15.96839425 -9.83799438 15.96839425 -6.5625 17 C-3.72629536 17 -2.33357793 16.58349931 0 15 C0.33 14.34 0.66 13.68 1 13 C2.32 13.33 3.64 13.66 5 14 C3.63016497 17.16115776 3.0109362 17.9927092 0 20 C-4.99620813 20.80447419 -8.81632667 20.79716775 -13.0625 17.9375 C-15.39595144 14.39968652 -16 12.2362654 -16 8 C-14.09234583 2.6786489 -14.09234583 2.6786489 -11.1640625 0.859375 C-7.45584898 -0.61320076 -3.91269283 -0.68350071 0 0 Z M-9.875 4.375 C-12.10486637 6.56665514 -12.10486637 6.56665514 -12 8 C-7.38 8 -2.76 8 2 8 C-0.3597261 2.91291349 -0.3597261 2.91291349 -3.875 1.875 C-7.21915778 1.69286651 -7.21915778 1.69286651 -9.875 4.375 Z " fill="#526986" transform="translate(769,278)"/>
<path d="M0 0 C2.32421875 0.15234375 2.32421875 0.15234375 5 1 C7.20289583 4.48655858 8.45266263 8.1537614 10 12 C11.98 8.04 13.96 4.08 16 0 C17.32 0.33 18.64 0.66 20 1 C18.27423851 5.15634249 16.51545877 9.29788102 14.75 13.4375 C14.25886719 14.62150391 13.76773438 15.80550781 13.26171875 17.02539062 C12.77832031 18.15009766 12.29492188 19.27480469 11.796875 20.43359375 C11.35698242 21.47572021 10.91708984 22.51784668 10.46386719 23.59155273 C9 26 9 26 6.82519531 26.84790039 C6.22288086 26.89809326 5.62056641 26.94828613 5 27 C5.144375 26.29875 5.28875 25.5975 5.4375 24.875 C5.623125 23.92625 5.80875 22.9775 6 22 C6.2475 21.1234375 6.495 20.246875 6.75 19.34375 C7.09447264 14.73642839 5.52787223 11.71860016 3.5625 7.625 C3.22412109 6.88894531 2.88574219 6.15289062 2.53710938 5.39453125 C1.70513273 3.5899622 0.85441326 1.79405479 0 0 Z " fill="#526986" transform="translate(889,278)"/>
<path d="M0 0 C0.99 0 1.98 0 3 0 C3 2.64 3 5.28 3 8 C4.32 8 5.64 8 7 8 C7 8.66 7 9.32 7 10 C5.68 10 4.36 10 3 10 C3 15.94 3 21.88 3 28 C2.01 28 1.02 28 0 28 C0 22.06 0 16.12 0 10 C-1.32 10 -2.64 10 -4 10 C-4 15.94 -4 21.88 -4 28 C-4.99 28 -5.98 28 -7 28 C-7 21.4 -7 14.8 -7 8 C-4.69 8 -2.38 8 0 8 C0 5.36 0 2.72 0 0 Z " fill="#526986" transform="translate(561,270)"/>
<path d="M0 0 C2.30859375 1.40234375 2.30859375 1.40234375 4 3 C4 3.66 4 4.32 4 5 C3.29875 4.855625 2.5975 4.71125 1.875 4.5625 C0.92625 4.376875 -0.0225 4.19125 -1 4 C-2.5159375 3.6596875 -2.5159375 3.6596875 -4.0625 3.3125 C-7.2244746 2.97611972 -8.43298768 3.19358392 -11 5 C-12.39935013 7.79870027 -12.25265405 9.90498792 -12 13 C-10.38024405 15.60960681 -9.14864111 15.95705924 -6.1875 16.8125 C-2.62840444 17.02185856 -0.2812543 16.32812674 3 15 C3 15.99 3 16.98 3 18 C-1.25765662 20.83843775 -5.00325549 20.75261524 -10 20 C-12.86581295 18.66453117 -13.87077373 17.51139509 -16 15 C-17.10742882 11.67771355 -17.18215425 9.76504786 -16.375 6.375 C-12.5494649 -0.23274244 -7.19094415 -1.29787773 0 0 Z " fill="#526986" transform="translate(885,278)"/>
<path d="M0 0 C2.30859375 1.40234375 2.30859375 1.40234375 4 3 C4 3.66 4 4.32 4 5 C3.29875 4.855625 2.5975 4.71125 1.875 4.5625 C0.92625 4.376875 -0.0225 4.19125 -1 4 C-2.5159375 3.6596875 -2.5159375 3.6596875 -4.0625 3.3125 C-7.2244746 2.97611972 -8.43298768 3.19358392 -11 5 C-12.39935013 7.79870027 -12.25265405 9.90498792 -12 13 C-10.38024405 15.60960681 -9.14864111 15.95705924 -6.1875 16.8125 C-2.62840444 17.02185856 -0.2812543 16.32812674 3 15 C3 15.99 3 16.98 3 18 C-1.25765662 20.83843775 -5.00325549 20.75261524 -10 20 C-12.86581295 18.66453117 -13.87077373 17.51139509 -16 15 C-17.10742882 11.67771355 -17.18215425 9.76504786 -16.375 6.375 C-12.5494649 -0.23274244 -7.19094415 -1.29787773 0 0 Z " fill="#526986" transform="translate(718,278)"/>
<path d="M0 0 C3.63 0 7.26 0 11 0 C10.67 0.99 10.34 1.98 10 3 C8.67696283 3.3721042 7.34262065 3.70630173 6 4 C4.5192152 6.9615696 4.64685963 9.83506295 4.4375 13.125 C4.35371094 14.40632813 4.26992188 15.68765625 4.18359375 17.0078125 C4.09271484 18.48894531 4.09271484 18.48894531 4 20 C2.68 20 1.36 20 0 20 C0 13.4 0 6.8 0 0 Z " fill="#526986" transform="translate(745,278)"/>
<path d="M0 0 C0.99 0 1.98 0 3 0 C3 9.24 3 18.48 3 28 C2.01 28 1.02 28 0 28 C0 18.76 0 9.52 0 0 Z " fill="#526986" transform="translate(667,270)"/>
<path d="M0 0 C0.99 0 1.98 0 3 0 C3 9.24 3 18.48 3 28 C2.01 28 1.02 28 0 28 C0 18.76 0 9.52 0 0 Z " fill="#526986" transform="translate(591,270)"/>
<path d="M0 0 C1.32 0 2.64 0 4 0 C4 1.32 4 2.64 4 4 C2.35 3.67 0.7 3.34 -1 3 C-0.67 2.01 -0.34 1.02 0 0 Z " fill="#526986" transform="translate(554,270)"/>
<path d="M0 0 C1.32 0 2.64 0 4 0 C4 1.32 4 2.64 4 4 C2.35 3.67 0.7 3.34 -1 3 C-0.67 2.01 -0.34 1.02 0 0 Z " fill="#526986" transform="translate(527,270)"/>
</svg>
